<?xml version="1.0" encoding="UTF-8" standalone="no"?>
<!-- Created with Inkscape (http://www.inkscape.org/) -->
<svg xmlns:dc="http://purl.org/dc/elements/1.1/" xmlns:cc="http://creativecommons.org/ns#" xmlns:rdf="http://www.w3.org/1999/02/22-rdf-syntax-ns#" xmlns:svg="http://www.w3.org/2000/svg" xmlns="http://www.w3.org/2000/svg" xmlns:sodipodi="http://sodipodi.sourceforge.net/DTD/sodipodi-0.dtd" xmlns:inkscape="http://www.inkscape.org/namespaces/inkscape" id="svg2440" sodipodi:version="0.32" inkscape:version="0.46" width="417" height="417" version="1.0" sodipodi:docname="Sharif_logo.svg" inkscape:output_extension="org.inkscape.output.svg.inkscape">
  <metadata id="metadata2445">
    <rdf:RDF>
      <cc:Work rdf:about="">
        <dc:format>image/svg+xml</dc:format>
        <dc:type rdf:resource="http://purl.org/dc/dcmitype/StillImage"/>
      </cc:Work>
    </rdf:RDF>
  </metadata>
  <defs id="defs2443">
    <inkscape:perspective sodipodi:type="inkscape:persp3d" inkscape:vp_x="0 : 526.18109 : 1" inkscape:vp_y="0 : 1000 : 0" inkscape:vp_z="744.09448 : 526.18109 : 1" inkscape:persp3d-origin="372.04724 : 350.78739 : 1" id="perspective2447"/>
  </defs>
  <sodipodi:namedview inkscape:window-height="744" inkscape:window-width="1280" inkscape:pageshadow="2" inkscape:pageopacity="0.0" guidetolerance="10.0" gridtolerance="10.0" objecttolerance="10.0" borderopacity="1.0" bordercolor="#666666" pagecolor="#ffffff" id="base" showgrid="false" inkscape:zoom="0.78341327" inkscape:cx="491.95689" inkscape:cy="136.29253" inkscape:window-x="-4" inkscape:window-y="-4" inkscape:current-layer="layer1"/>
  <g inkscape:groupmode="layer" id="layer1" inkscape:label="Logo" sodipodi:insensitive="true">
    <path style="fill:#000000" d="M 184.96936,416.04727 C 149.14816,411.93694 111.40369,396.81254 82.991667,375.18431 C 4.0658375,315.1032 -22.084353,209.45687 19.828177,120.00492 C 64.457037,24.755658 174.63214,-22.683292 273.6673,10.707438 C 337.55814,32.248908 384.9489,79.672918 406.37165,143.50492 C 430.11538,214.25259 413.38676,292.93319 362.72693,348.7815 C 328.50411,386.50934 281.47778,410.46253 230.46936,416.1478 C 219.89514,417.32638 195.64985,417.27281 184.96936,416.04727 z M 236.46936,406.56152 C 323.99205,394.53245 394.02148,324.33358 406.45229,236.16733 C 408.36678,222.58876 408.36678,194.7459 406.45229,181.16733 C 394.01507,92.955618 324.95945,23.686878 236.48657,10.677068 C 221.98001,8.5438976 194.95871,8.5438976 180.45215,10.677068 C 92.229517,23.650078 23.468817,92.288638 10.531727,180.29567 C 8.4666375,194.34382 8.4666375,222.99084 10.531727,237.03899 C 20.245237,303.11703 62.830117,360.94111 122.52494,389.10955 C 158.59968,406.13228 196.90506,411.99921 236.46936,406.56152 z M 188.46936,400.56315 C 186.26936,400.33827 183.00686,399.91183 181.21936,399.61549 L 177.96936,399.0767 L 177.96936,386.24359 L 177.96936,373.41048 L 171.71936,371.81539 C 168.28186,370.93809 162.48219,369.35454 158.8312,368.29638 L 152.19304,366.37246 L 145.95558,377.2699 C 142.52498,383.26348 139.08942,388.16733 138.32101,388.16733 C 133.42287,388.16733 86.140327,360.49727 87.324577,358.32388 C 88.509357,356.14954 96.535417,342.16407 98.063797,339.61074 L 99.893407,336.55415 L 90.181387,326.92053 L 80.469357,317.2869 L 74.969357,320.532 C 71.944357,322.31681 66.927977,325.22154 63.821857,326.98696 L 58.174357,330.19682 L 49.640347,317.43208 C 41.550537,305.33173 28.969357,281.82827 28.969357,278.81568 C 28.969357,278.04727 33.873197,274.61171 39.866787,271.18111 L 50.764227,264.94365 L 48.840297,258.30549 C 47.782147,254.6545 46.198587,248.85483 45.321297,245.41733 L 43.726207,239.16733 L 30.893097,239.16733 L 18.059977,239.16733 L 17.264667,235.41733 C 16.230377,230.54053 16.230377,186.79413 17.264667,181.91733 L 18.059977,178.16733 L 30.902757,178.16733 L 43.745537,178.16733 L 46.011167,168.91733 C 47.257267,163.82983 48.843487,158.03417 49.536107,156.0381 L 50.795417,152.40886 L 39.882387,146.16248 C 33.880217,142.72696 28.969357,139.28739 28.969357,138.51898 C 28.969357,135.50639 41.550537,112.00293 49.640347,99.902578 L 58.174357,87.137838 L 63.821857,90.347698 C 66.927977,92.113118 71.944357,95.017848 74.969357,96.802658 L 80.469357,100.04775 L 90.181387,90.414128 L 99.893407,80.780508 L 98.063797,77.723918 C 96.535417,75.170578 88.509357,61.185118 87.324577,59.010778 C 86.140327,56.837388 133.42287,29.167328 138.32101,29.167328 C 139.08942,29.167328 142.52498,34.071168 145.95558,40.064758 L 152.19304,50.962198 L 158.8312,49.038268 C 162.48219,47.980118 168.28186,46.396558 171.71936,45.519268 L 177.96936,43.924178 L 177.96936,31.091068 L 177.96936,18.257948 L 181.71936,17.462638 C 186.59616,16.428348 230.34256,16.428348 235.21936,17.462638 L 238.96936,18.257948 L 238.96936,31.036798 L 238.96936,43.815648 L 251.9012,47.312608 L 264.83304,50.809568 L 271.02682,39.988448 C 274.4334,34.036828 277.8493,29.167328 278.61771,29.167328 C 283.51585,29.167328 330.79839,56.837388 329.61414,59.010778 C 328.42936,61.185118 320.4033,75.170578 318.87492,77.723918 L 317.04531,80.780508 L 326.75733,90.414128 L 336.46936,100.04775 L 341.96936,96.802658 C 344.99436,95.017848 350.01073,92.113118 353.11686,90.347698 L 358.76436,87.137838 L 367.29837,99.902578 C 375.38818,112.00293 387.96936,135.50639 387.96936,138.51898 C 387.96936,139.28739 383.09986,142.70329 377.14824,146.10987 L 366.32712,152.30365 L 369.82408,165.23549 L 373.32104,178.16733 L 386.09988,178.16733 L 398.87873,178.16733 L 399.67405,181.91733 C 400.11147,183.97983 400.46936,196.01733 400.46936,208.66733 C 400.46936,221.31733 400.11147,233.35483 399.67405,235.41733 L 398.87873,239.16733 L 386.09988,239.16733 L 373.32104,239.16733 L 369.82408,252.09917 L 366.32712,265.03101 L 377.14824,271.22479 C 383.09986,274.63137 387.96936,278.04727 387.96936,278.81568 C 387.96936,281.82827 375.38818,305.33173 367.29837,317.43208 L 358.76436,330.19682 L 353.11686,326.98696 C 350.01073,325.22154 344.99436,322.31681 341.96936,320.532 L 336.46936,317.2869 L 326.75733,326.92053 L 317.04531,336.55415 L 318.87492,339.61074 C 320.4033,342.16407 328.42936,356.14954 329.61414,358.32388 C 330.79839,360.49727 283.51585,388.16733 278.61771,388.16733 C 277.8493,388.16733 274.4334,383.29783 271.02682,377.34621 L 264.83304,366.52509 L 251.9012,370.02205 L 238.96936,373.51901 L 238.96936,386.22654 C 238.96936,398.54086 238.89974,398.95466 236.71936,399.59957 C 234.10154,400.37386 194.37843,401.16716 188.46936,400.56315 z M 214.71936,382.51935 L 219.96936,381.88875 L 219.96936,369.58931 L 219.96936,357.28988 L 224.71936,356.71516 C 233.55521,355.64608 255.42019,349.99231 263.90004,346.58395 C 268.53692,344.72023 272.55845,343.42309 272.83679,343.70143 C 273.11513,343.97977 276.08666,348.90937 279.44018,354.6561 L 285.5375,365.10469 L 294.00343,360.15447 C 298.65969,357.43184 303.10082,354.80196 303.87261,354.31027 C 304.99814,353.59323 304.04113,351.26441 299.037,342.5432 L 292.79814,331.6701 L 296.10616,329.16872 C 307.52364,320.53528 320.24198,307.81404 328.97075,296.29663 L 331.47213,292.99611 L 342.27466,299.19448 C 348.21605,302.60358 353.19865,305.2296 353.34711,305.03008 C 355.23975,302.48656 358.34785,297.4344 361.29605,292.10924 L 364.92685,285.55114 L 353.94811,279.28981 C 347.9098,275.84607 342.96936,272.88183 342.96936,272.70261 C 342.96936,272.52339 344.29841,269.25352 345.92281,265.43625 C 349.30716,257.48315 355.96267,232.62631 355.98301,227.86364 C 356.01637,220.05633 355.82217,220.16733 369.44831,220.16733 L 381.694,220.16733 L 382.36126,214.48993 C 382.72826,211.36736 382.73209,206.19236 382.36978,202.98993 L 381.71103,197.16733 L 369.45683,197.16733 C 355.82105,197.16733 356.01637,197.2789 355.98301,189.47102 C 355.96267,184.70835 349.30716,159.85151 345.92281,151.89841 C 344.29841,148.08114 342.96936,144.81127 342.96936,144.63205 C 342.96936,144.45283 347.9098,141.48859 353.94811,138.04485 L 364.92685,131.78352 L 361.29605,125.22542 C 358.34785,119.90026 355.23975,114.8481 353.34711,112.30458 C 353.19865,112.10506 348.25443,114.70906 342.35994,118.09125 C 336.46546,121.47343 331.34832,123.88667 330.98852,123.454 C 330.62871,123.02133 327.37677,119.06733 323.76198,114.66733 C 316.14019,105.38992 306.89241,96.369148 298.71936,90.239468 C 295.55686,87.867628 292.96936,85.800838 292.96936,85.646598 C 292.96936,85.492358 295.73832,80.540398 299.12261,74.642258 C 304.05947,66.038288 304.99846,63.741628 303.87261,63.024388 C 303.10082,62.532698 298.65969,59.902808 294.00343,57.180188 L 285.5375,52.229968 L 279.44018,62.678558 C 276.08666,68.425288 273.07464,73.395378 272.74681,73.723208 C 272.41898,74.051038 269.01479,72.942878 265.18194,71.260628 C 258.10607,68.155008 233.38492,61.649718 224.71936,60.613038 L 219.96936,60.044778 L 219.96936,47.743738 L 219.96936,35.442688 L 214.29196,34.775418 C 211.16939,34.408428 205.99439,34.404598 202.79196,34.766908 L 196.96936,35.425658 L 196.96936,47.751178 L 196.96936,60.076698 L 193.71936,60.578028 C 191.93186,60.853758 188.25717,61.362918 185.55338,61.709508 C 179.68258,62.462048 156.59089,68.997808 149.28075,71.975928 L 144.09214,74.089748 L 137.7332,63.167568 L 131.37426,52.245378 L 122.92181,57.187898 C 118.27296,59.906278 113.8379,62.532698 113.06611,63.024388 C 111.9404,63.741548 112.88711,66.051978 117.85278,74.706168 C 121.25724,80.639468 123.6887,85.779198 123.25603,86.127808 C 107.41668,98.889578 101.89628,104.13224 93.204577,114.66733 C 89.574477,119.06733 86.310007,123.02133 85.950197,123.454 C 85.590397,123.88667 80.473257,121.47343 74.578767,118.09125 C 68.684287,114.70906 63.740067,112.10506 63.591607,112.30458 C 61.698967,114.8481 58.590867,119.90026 55.642657,125.22542 L 52.011867,131.78352 L 62.990607,138.04485 C 69.028917,141.48859 73.969357,144.4084 73.969357,144.53332 C 73.969357,144.65825 72.407847,148.5645 70.499327,153.21389 C 67.123617,161.43757 61.632437,182.83495 60.438597,192.41733 L 59.846807,197.16733 L 47.537247,197.16733 L 35.227687,197.16733 L 34.568937,202.98993 C 34.206627,206.19236 34.210457,211.36736 34.577447,214.48993 L 35.244717,220.16733 L 47.561727,220.16733 L 59.878727,220.16733 L 60.346697,223.41733 C 62.674917,239.58678 67.180307,257.06495 71.590937,267.03816 C 72.899067,269.99608 73.969357,272.55395 73.969357,272.72233 C 73.969357,272.89071 69.028917,275.84607 62.990607,279.28981 L 52.011867,285.55114 L 55.642657,292.10924 C 58.590867,297.4344 61.698967,302.48656 63.591607,305.03008 C 63.740067,305.2296 68.684287,302.6256 74.578767,299.24341 C 80.473257,295.86123 85.590397,293.44799 85.950197,293.88066 C 86.310007,294.31333 89.561947,298.26733 93.176737,302.66733 C 100.79853,311.94474 110.04631,320.96551 118.21936,327.09519 C 121.38186,329.46703 123.96936,331.53382 123.96936,331.68806 C 123.96936,331.8423 121.2004,336.79426 117.81611,342.6924 C 112.87925,351.29637 111.94026,353.59302 113.06611,354.31027 C 113.8379,354.80196 118.27296,357.42838 122.92181,360.14676 L 131.37426,365.08928 L 137.7332,354.16709 L 144.09214,343.24491 L 149.28075,345.34797 C 160.30838,349.81771 180.3021,355.0858 192.21936,356.66174 L 196.96936,357.28988 L 196.96936,369.66824 L 196.96936,382.0466 L 200.71936,382.43886 C 207.48477,383.14655 209.40573,383.15759 214.71936,382.51935 z M 205.561,345.69859 C 203.85661,343.46401 201.53829,341.85907 199.04514,341.18773 C 196.91656,340.61457 194.93282,339.51448 194.63681,338.74309 C 194.0138,337.11957 207.36384,317.82011 209.42849,317.35952 C 210.91309,317.02832 225.96936,336.41648 225.96936,338.6594 C 225.96936,339.44861 224.23725,340.28081 221.71936,340.7013 C 218.5819,341.22527 216.52792,342.42627 213.87297,345.2892 C 211.89496,347.42217 209.81087,349.16733 209.24166,349.16733 C 208.67245,349.16733 207.01616,347.6064 205.561,345.69859 z M 138.73022,330.45008 C 129.84523,329.95747 129.17708,328.8367 131.50559,318.33128 C 133.67994,308.52136 136.9725,302.06156 142.57222,296.61925 C 151.28788,288.1486 161.31104,285.22645 181.7851,285.18714 C 194.3742,285.16296 195.96936,285.84685 195.96936,291.26826 C 195.96936,299.14069 195.9096,299.16733 178.2499,299.16733 C 164.42189,299.16733 162.09859,299.41045 158.28508,301.25654 C 155.4321,302.63764 153.96936,303.99337 153.96936,305.25654 C 153.96936,307.07326 154.94415,307.16733 173.76936,307.16733 C 187.83603,307.16733 193.91683,307.5148 194.76936,308.36733 C 196.21755,309.81552 196.40063,326.93568 194.99178,329.16733 C 194.19475,330.42985 190.19964,330.67971 169.7571,330.74552 C 156.39884,330.78853 142.43675,330.65558 138.73022,330.45008 z M 236.00691,330.41884 C 228.41494,330.20624 224.2837,329.6875 223.77222,328.88259 C 223.34749,328.2142 222.99309,323.53697 222.98467,318.48876 C 222.9626,305.25907 221.91387,305.81701 245.9224,306.28572 C 262.68817,306.61303 265.46936,306.45668 265.46936,305.18684 C 265.46936,304.37257 263.44436,302.57257 260.96936,301.18684 C 256.7036,298.79848 255.6689,298.66733 241.09189,298.66733 C 226.64138,298.66733 225.63138,298.54232 224.33688,296.59348 C 223.37698,295.14839 223.15752,293.07373 223.613,289.75062 L 224.26666,284.98161 L 242.36801,285.34655 C 263.25436,285.76764 266.28231,286.63838 274.90377,294.70275 C 283.39808,302.64818 288.33054,313.62332 287.77428,323.34071 C 287.48254,328.43703 287.31803,328.71893 283.96936,329.86089 C 280.58674,331.01442 264.11727,331.20601 236.00691,330.41884 z M 204.28318,304.26865 C 200.1862,301.70426 198.96936,299.3345 198.96936,293.92016 C 198.96936,283.5038 212.32606,279.7 218.40866,288.38412 C 219.26704,289.60964 219.96936,292.53012 219.96936,294.87406 C 219.96936,303.38585 211.23253,308.61841 204.28318,304.26865 z M 131.96764,286.42975 C 128.22099,279.32483 119.32879,270.98577 111.12036,266.87926 C 102.29646,262.46485 94.528387,260.78705 85.804027,261.41127 C 81.946647,261.68727 78.664887,261.46286 78.085507,260.88348 C 76.709857,259.50784 80.109347,252.99638 83.691457,250.14571 C 86.233997,248.12233 87.231897,247.98175 95.469357,248.48643 C 111.85079,249.49006 120.84534,253.88061 134.64667,267.61026 C 146.19997,279.10355 146.74698,280.78036 140.88988,286.74831 C 138.50457,289.17877 136.08336,291.16733 135.50943,291.16733 C 134.9355,291.16733 133.3417,289.03542 131.96764,286.42975 z M 277.90743,285.33443 C 273.60178,281.51349 273.59268,281.49085 274.99252,278.08443 C 276.96587,273.28239 292.35473,258.12646 299.13374,254.30862 C 310.63081,247.83364 327.17906,244.35469 333.67757,247.04647 C 336.57733,248.24759 342.76166,257.70833 341.48296,258.98709 C 341.10885,259.36122 336.45274,259.71969 331.13606,259.7837 C 313.41517,259.99702 300.61646,266.97767 289.17995,282.66733 C 285.60719,287.56878 284.09115,289.12138 282.84797,289.15202 C 282.5062,289.16044 280.28296,287.44252 277.90743,285.33443 z M 151.8179,277.14237 C 150.90959,276.6121 148.83118,273.81328 147.19921,270.92278 C 145.56724,268.03228 140.83121,262.43777 136.67471,258.49052 C 125.04814,247.44929 112.26994,242.05948 97.066497,241.7839 C 92.933677,241.70899 90.487867,241.22497 90.223017,240.42959 C 89.996337,239.74884 92.106187,236.95615 94.911577,234.22361 C 104.52806,224.85686 123.05958,218.09666 133.62084,220.10266 C 154.66834,224.10042 174.72316,242.37406 184.51803,266.47939 C 188.4136,276.06643 187.74921,278.16733 180.82183,278.16733 C 176.11294,278.16733 174.26751,276.58014 172.03325,270.60855 C 166.16669,254.92877 146.51164,234.40053 138.2706,235.34596 C 136.03951,235.60192 135.46936,236.17341 135.46936,238.15378 C 135.46936,240.10097 136.82477,241.52702 141.71894,244.72907 C 150.15483,250.24833 152.20647,252.31439 158.52801,261.65635 C 164.349,270.2586 166.22983,275.75557 163.8646,277.25323 C 162.00662,278.42971 153.8951,278.35506 151.8179,277.14237 z M 194.96936,276.86957 L 192.46936,275.60129 L 192.81604,231.63431 C 193.19143,184.02665 192.56411,173.08945 188.4875,156.16733 C 185.53442,143.90903 184.36575,140.97586 177.26237,127.99414 C 174.35121,122.67389 171.96936,117.83639 171.96936,117.24414 C 171.96936,113.47123 184.27496,121.03333 191.08834,128.99323 C 195.09984,133.67976 199.86362,142.94808 202.91205,151.9972 C 204.89621,157.88709 204.96936,160.20203 204.96936,217.1006 C 204.96936,274.40512 204.91389,276.12665 203.0351,277.13215 C 200.48206,278.49849 198.02242,278.41842 194.96936,276.86957 z M 214.73073,277.0936 C 213.10158,276.14446 213.02225,272.3528 213.47082,216.874 C 213.9243,160.78787 214.0592,157.27241 216.03026,150.17445 C 217.17466,146.05336 219.50189,140.07196 221.20189,136.88244 C 224.61678,130.47544 233.89215,121.26769 240.14438,118.07804 C 247.37566,114.38892 247.3589,115.91461 240.00848,130.44821 C 234.6211,141.10039 232.5319,146.61806 229.85513,157.2637 L 226.48489,170.66733 L 226.18359,223.16733 C 225.91176,270.53124 225.7211,275.78962 224.23469,276.91733 C 222.26564,278.41122 217.15507,278.506 214.73073,277.0936 z M 235.46936,277.17702 C 232.71545,276.65974 232.47504,276.28603 232.53862,272.62112 C 232.68621,264.11382 246.32784,241.76299 256.79127,232.8849 C 263.49096,227.20029 271.93238,222.67248 279.51091,220.69852 C 293.79447,216.97813 306.31362,220.20826 321.78304,231.60535 C 326.68315,235.2155 328.02649,236.75067 327.78304,238.46214 C 327.49022,240.52066 327.03337,240.6447 320.91433,240.32715 C 304.29494,239.46466 282.34892,252.26252 272.75512,268.41128 C 267.96061,276.48164 264.31468,278.73936 257.84243,277.64589 C 254.72646,277.11945 253.96936,276.56444 253.96936,274.80668 C 253.96936,270.1543 261.43493,259.64519 272.761,248.3541 C 282.07579,239.06809 283.89562,236.78341 282.91688,235.6041 C 281.17337,233.50329 279.07144,233.83553 273.46936,237.09741 C 263.44737,242.93284 252.77132,255.96857 247.92855,268.28337 C 244.61171,276.71786 242.19793,278.44087 235.46936,277.17702 z M 179.61791,242.40265 C 178.31082,240.33208 176.4755,238.00235 175.53943,237.22548 C 171.34945,233.74811 170.90873,231.04336 171.00746,209.41228 C 171.05953,198.00256 170.78977,187.85549 170.408,186.86323 C 169.9383,185.64246 168.88737,185.15746 167.15768,185.36323 C 163.47929,185.80083 162.74621,189.50216 163.43227,204.17306 C 164.04724,217.32386 163.47726,223.16733 161.57955,223.16733 C 160.95266,223.16733 158.64641,222.20049 156.45455,221.0188 C 154.2627,219.83711 150.44436,217.83801 147.96936,216.57636 L 143.46936,214.28244 L 143.46936,185.47488 C 143.46936,157.53543 143.40156,156.53833 141.21936,152.38654 C 137.46969,145.2525 138.38301,144.07276 147.68665,144.03275 C 162.74924,143.96799 174.34514,150.97197 180.98546,164.14541 C 183.95664,170.03979 184.85276,181.93127 184.91845,216.33554 C 184.97956,248.34482 184.58718,250.27448 179.61791,242.40265 z M 233.94291,244.41733 C 233.92837,244.00483 233.83046,228.59233 233.72535,210.16733 C 233.5125,172.85709 234.05411,168.50033 240.04238,159.35315 C 243.29045,154.39167 251.05959,147.97349 256.96936,145.36957 C 261.98987,143.15747 277.38677,143.15617 279.59826,145.36766 C 281.10345,146.87285 281.0465,147.24985 278.84826,150.33194 C 276.50597,153.616 276.46166,154.11365 275.96936,182.66733 C 275.69436,198.61733 275.07693,212.27575 274.59728,213.01936 C 274.11764,213.76298 272.1504,215.02939 270.22564,215.83361 C 268.30088,216.63783 264.94761,218.41851 262.77394,219.79069 C 255.69153,224.26162 255.53578,223.95171 254.96936,204.26208 C 254.53409,189.13143 254.24279,186.73855 252.71936,185.77938 C 251.44475,184.97687 250.49397,184.97707 249.21936,185.78009 C 247.66344,186.76035 247.41391,189.36603 246.96936,209.27498 L 246.46936,231.66733 L 241.48109,238.41733 C 237.11233,244.32904 234.02641,246.78526 233.94291,244.41733 z M 123.52117,211.57628 C 122.14865,210.20377 121.96715,207.07895 122.19974,188.82628 L 122.46936,167.66733 L 125.25306,167.34766 C 129.30014,166.8829 133.5405,171.78454 134.94529,178.55137 C 136.39988,185.55811 135.46681,211.23335 133.71721,212.34433 C 131.55249,213.71891 125.18407,213.23919 123.52117,211.57628 z M 284.71936,211.08723 C 283.16627,210.18264 282.96999,208.24511 282.97494,193.86764 C 282.978,184.95747 283.46503,175.92235 284.05721,173.7896 C 285.58963,168.27056 289.18758,164.96442 293.23602,165.35521 L 296.46936,165.66733 L 296.12629,187.66733 C 295.83476,206.36183 295.54311,209.85514 294.18516,210.91733 C 292.27184,212.41393 287.15485,212.50577 284.71936,211.08723 z M 94.143667,155.85288 C 91.217507,152.73813 91.391397,152.16733 95.266407,152.16733 C 99.098807,152.16733 103.4291,148.13176 109.32358,139.06689 C 112.8791,133.599 112.92824,133.39217 111.3998,130.32834 C 109.24836,126.01568 109.84267,121.75655 112.6517,121.35665 C 114.06394,121.1556 115.23467,121.79455 115.96936,123.16733 C 117.38475,125.81201 120.7012,125.48323 122.6698,122.50307 C 123.99353,120.49915 123.8918,120.23929 121.29663,118.99546 C 117.20378,117.03381 116.96595,114.16733 120.89604,114.16733 C 125.07322,114.16733 127.96936,117.26268 127.96936,121.72719 C 127.96936,124.60876 127.04177,126.27598 123.10113,130.47719 C 120.42361,133.33177 115.64836,139.867 112.48948,144.99993 C 104.72269,157.62032 98.990047,161.01161 94.143667,155.85288 z M 115.96936,128.16733 C 115.96936,127.61733 115.51936,127.16733 114.96936,127.16733 C 114.41936,127.16733 113.96936,127.61733 113.96936,128.16733 C 113.96936,128.71733 114.41936,129.16733 114.96936,129.16733 C 115.51936,129.16733 115.96936,128.71733 115.96936,128.16733 z M 308.35748,157.20879 C 304.77553,155.725 301.85164,151.25582 303.02656,149.06046 C 304.44799,146.40449 306.14339,146.69576 309.46936,150.16733 C 313.5643,154.44153 314.34166,153.99209 313.61071,147.77291 C 313.08233,143.27718 313.25557,142.27148 314.65057,141.73617 C 317.76541,140.54089 319.55633,143.93025 319.10557,150.16733 C 318.72039,155.49693 313.10533,159.17555 308.35748,157.20879 z M 208.48099,150.18615 C 208.14747,149.6465 206.99381,146.64496 205.91731,143.51605 C 202.97338,134.95935 199.63364,129.91626 191.81402,122.2197 C 184.07587,114.60333 183.44616,112.16733 189.21547,112.16733 C 192.97719,112.16733 195.2611,113.5435 202.79995,120.35268 C 205.73177,123.00074 208.56369,125.16733 209.09311,125.16733 C 209.62253,125.16733 212.16894,122.87321 214.7518,120.06928 C 220.21928,114.13383 223.57093,112.16733 228.2197,112.16733 C 234.83439,112.16733 234.51469,114.01025 226.6415,121.26491 C 218.77416,128.51418 214.31443,135.62189 211.48711,145.41733 C 209.76324,151.38978 209.4914,151.82102 208.48099,150.18615 z M 119.35133,144.97635 C 118.94649,144.32131 119.17401,143.59911 119.85693,143.37147 C 120.53985,143.14383 121.51868,141.8527 122.03211,140.50228 C 122.54554,139.15187 123.41646,138.32562 123.96749,138.66617 C 125.20432,139.43057 125.29695,142.16733 124.08599,142.16733 C 123.60014,142.16733 122.96727,143.06733 122.67961,144.16733 C 122.09611,146.39865 120.47404,146.79293 119.35133,144.97635 z M 299.98849,144.91733 C 300.02158,142.75473 312.02704,130.16733 314.05655,130.16733 C 316.69956,130.16733 316.50583,130.79819 312.24569,136.06434 C 305.19841,144.77578 299.93245,148.57922 299.98849,144.91733 z M 293.2073,137.50103 C 292.51317,137.22141 290.64971,135.11943 289.06629,132.82998 C 285.37875,127.49819 278.17039,120.16733 276.61524,120.16733 C 275.95516,120.16733 273.93702,118.81733 272.1305,117.16733 C 270.32398,115.51733 267.80938,114.16733 266.5425,114.16733 C 263.0963,114.16733 258.96936,110.48185 258.96936,107.40429 C 258.96936,103.44668 268.86109,86.167328 271.12667,86.167328 C 273.64622,86.167328 273.49907,86.783178 269.33461,93.667328 C 264.23079,102.10431 263.67441,104.52265 266.12144,107.63354 C 267.91276,109.91083 270.96936,111.12013 270.96936,109.55154 C 270.96936,109.21286 270.18272,106.72092 269.22127,104.01389 C 267.08617,98.002388 268.09449,96.878388 274.96936,97.606308 C 277.44436,97.868358 282.53016,98.365108 286.27115,98.710188 C 292.18656,99.255848 292.90971,99.534278 291.82038,100.84684 C 290.84079,102.02717 288.75676,102.28102 282.25739,102.0117 C 275.1784,101.71836 274.03818,101.8896 274.56257,103.16733 C 274.90116,103.99233 275.4687,106.91733 275.82377,109.66733 C 276.40947,114.2035 276.81723,114.83731 280.21936,116.49969 C 282.28186,117.50748 283.96936,118.75612 283.96936,119.27444 C 283.96936,119.79275 285.09436,120.64456 286.46936,121.16733 C 287.84436,121.6901 288.96936,122.80397 288.96936,123.64258 C 288.96936,124.48119 289.63871,125.16733 290.45682,125.16733 C 291.27492,125.16733 293.08056,126.96733 294.46936,129.16733 C 297.29442,133.64251 298.96173,134.28871 298.98467,130.91733 C 299.00655,127.7033 300.41228,125.91395 302.58919,126.32915 C 305.6791,126.9185 305.37855,130.63169 301.92232,134.56813 C 298.94586,137.95812 296.43749,138.80227 293.2073,137.50103 z M 98.349357,132.71522 C 97.637137,130.85921 98.676247,129.16733 100.52838,129.16733 C 101.39876,129.16733 101.96936,130.15728 101.96936,131.66733 C 101.96936,134.41504 99.298337,135.18822 98.349357,132.71522 z M 130.96936,132.64322 C 130.96936,132.35496 132.54436,129.82947 134.46936,127.03101 C 138.97063,120.48731 138.95828,118.47847 134.40509,116.57603 C 131.67315,115.43455 130.9142,114.58753 131.15509,112.94889 C 131.42075,111.14171 132.16491,110.7999 135.96588,110.73917 C 140.04614,110.67398 140.55529,110.38962 141.46588,107.66733 C 142.29239,105.19641 142.94072,104.72182 145.14208,104.9763 C 147.28521,105.22404 147.87977,104.82774 148.14269,102.9763 C 148.42316,101.00122 148.97455,100.70866 151.95575,100.95311 C 154.7225,101.17998 155.18618,100.98415 154.20514,100.00311 C 152.55594,98.353908 152.62792,95.167328 154.31437,95.167328 C 156.2499,95.167328 158.96936,98.481958 158.96936,100.84108 C 158.96936,103.03349 156.0742,106.16733 154.04878,106.16733 C 152.80618,106.16733 150.11423,108.02413 143.59694,113.37662 C 140.4735,115.94183 140.3216,116.36972 140.74064,121.42282 C 141.12924,126.10886 140.85445,127.15044 138.4874,129.96353 C 136.82652,131.93736 134.86593,133.16733 133.38047,133.16733 C 132.05436,133.16733 130.96936,132.93148 130.96936,132.64322 z M 306.96936,121.09401 C 306.96936,119.66291 307.50788,119.12439 308.70788,119.35549 C 311.31461,119.8575 311.60533,123.16733 309.04268,123.16733 C 307.61159,123.16733 306.96936,122.5251 306.96936,121.09401 z M 204.46936,117.59022 C 202.81936,116.20757 200.45765,114.23154 199.22111,113.19905 C 196.28157,110.74457 197.12952,108.74382 202.42438,105.64082 C 207.66368,102.57039 211.69928,102.50384 215.97765,105.41733 C 221.14526,108.93638 221.97171,111.01752 218.993,113.01048 C 217.631,113.92175 215.09659,115.90483 213.36098,117.41733 C 209.50239,120.77991 208.30363,120.80322 204.46936,117.59022 z M 292.38127,117.79838 C 292.05725,116.95398 292.03464,115.87073 292.33103,115.39116 C 292.62742,114.91159 291.87979,114.55254 290.66964,114.59327 C 289.34759,114.63777 288.46936,114.06861 288.46936,113.16733 C 288.46936,112.34233 289.3699,111.65058 290.47056,111.63012 C 291.57122,111.60965 293.07293,111.22136 293.80769,110.76725 C 296.0059,109.40868 297.18316,111.56294 296.23729,115.21318 C 295.2911,118.86461 293.30213,120.19808 292.38127,117.79838 z M 164.42161,104.52131 C 162.53083,102.48112 161.96936,100.78264 161.96936,97.103088 C 161.96936,94.478388 162.2425,91.619098 162.57635,90.749118 C 163.78988,87.586688 164.96936,89.283668 164.96936,94.192078 C 164.96936,98.611318 165.26611,99.329658 167.43194,100.1531 C 169.04027,100.76459 171.03492,100.70567 173.18194,99.983258 C 179.04346,98.011038 180.78038,95.564808 176.72958,94.986878 C 172.24822,94.347518 173.29246,87.366828 178.33572,84.249928 C 183.14978,81.274668 186.39703,81.554818 188.96936,85.167328 C 190.46117,87.262388 191.93967,88.167328 193.87079,88.167328 C 197.61249,88.167328 198.31181,87.203208 196.23482,84.908158 C 194.57921,83.078728 194.58826,82.919168 196.42376,81.577008 C 200.9218,78.287958 208.10661,80.887168 204.96861,84.668228 C 203.4016,86.556368 205.80641,87.676028 209.45951,86.759158 C 210.83213,86.414648 212.84619,86.697968 213.95728,87.391858 C 215.58056,88.405608 216.37434,88.395508 218.06515,87.339578 C 219.83729,86.232858 220.43695,86.280518 221.94825,87.648228 C 223.60563,89.148128 224.00863,89.080398 227.49201,86.716518 C 231.12243,84.252848 233.24566,83.705638 237.46936,84.145118 C 242.66374,84.685598 244.66391,90.853078 241.08014,95.278848 C 238.85537,98.026328 233.67502,98.155858 223.59855,95.715978 C 214.07319,93.409538 198.53195,92.002938 195.46354,93.169538 C 190.99042,94.870218 189.09265,94.329268 186.72855,90.679708 C 184.39382,87.075468 181.38257,86.154118 179.16974,88.366948 C 178.23692,89.299768 178.69283,89.800168 181.21974,90.616948 C 187.79389,92.741918 184.50094,101.20398 175.51073,105.28767 C 169.96262,107.80782 167.29671,107.62359 164.42161,104.52131 z M 237.71983,90.917328 C 237.17872,89.292188 234.49061,88.803968 231.14027,89.722338 L 228.46936,90.454458 L 230.96936,91.211218 C 235.03329,92.441368 238.18163,92.304298 237.71983,90.917328 z M 246.54079,105.5959 C 244.37909,103.43421 244.57101,101.04806 247.21936,97.159038 C 250.60276,92.190628 252.43139,91.370498 254.98111,93.677958 C 257.74329,96.177698 256.94972,101.70665 253.36791,104.91733 C 250.40814,107.57043 248.68644,107.74155 246.54079,105.5959 z M 251.9493,99.643158 C 251.25358,98.804868 250.47842,98.324928 250.22672,98.576628 C 249.53323,99.270128 250.94227,101.16733 252.15082,101.16733 C 252.81392,101.16733 252.73805,100.59355 251.9493,99.643158 z M 137.86791,98.917328 C 137.81211,98.779828 137.61116,96.956468 137.42137,94.865428 C 137.17279,92.126778 137.50905,90.897458 138.62374,90.469708 C 139.47485,90.143108 140.46329,90.278968 140.82028,90.771608 C 141.17728,91.264258 142.14436,91.667328 142.96936,91.667328 C 143.79436,91.667328 144.62139,92.742648 144.80721,94.056928 C 145.08921,96.051538 144.79994,96.356288 143.05721,95.900548 C 141.47927,95.487908 140.96936,95.820158 140.96936,97.260948 C 140.96936,98.309458 140.29436,99.167328 139.46936,99.167328 C 138.64436,99.167328 137.92371,99.054828 137.86791,98.917328 z M 282.71936,96.438858 C 277.37466,95.879788 278.05711,94.580358 283.46936,95.010818 C 285.94436,95.207658 287.96936,95.773398 287.96936,96.268018 C 287.96936,96.762638 287.63186,97.091678 287.21936,96.999228 C 286.80686,96.906768 284.78186,96.654598 282.71936,96.438858 z M 181.96936,74.684438 C 181.96936,73.772848 182.96719,73.107458 184.46936,73.017328 C 185.84436,72.934828 187.53186,72.822328 188.21936,72.767328 C 188.90686,72.712328 189.46936,73.333028 189.46936,74.146668 C 189.46936,75.138308 188.23307,75.720888 185.71936,75.913788 C 182.90744,76.129568 181.96936,75.822038 181.96936,74.684438 z M 211.29226,74.566398 C 210.40271,72.248278 213.12539,70.895678 214.96936,72.739658 C 216.30269,74.072988 216.30269,74.345048 214.96936,75.188178 C 212.83661,76.536818 211.99368,76.394288 211.29226,74.566398 z" id="path2380"/>
  </g>
</svg>